<svg width="316" height="69" fill="none" xmlns="http://www.w3.org/2000/svg"><g fill-rule="evenodd" clip-rule="evenodd" fill="#fff"><path d="M36.547 58.43C31.61 54.036 28.5 47.63 28.5 40.5c0-13.255 10.745-24 24-24 8.577 0 16.104 4.5 20.347 11.267-4.355-4.975-10.753-8.117-17.885-8.117C41.84 19.65 31.2 30.289 31.2 43.412a23.664 23.664 0 0 0 5.347 15.019zm21.446-1.702a7.5 7.5 0 1 1 8.264-11.365 7.05 7.05 0 1 0-8.264 11.365zm26.472-17.824c.795-.02 1.355-.35 1.68-.994v-.002L93.01 24.34c.606-1.477 1.217-1.477 1.835 0l6.427 13.013c.771 1.033 1.566 1.55 2.381 1.55h1.725c.888 0 1.792-.536 2.712-1.612l6.487-12.95c.617-1.607 1.239-1.607 1.866 0l6.741 13.57c.323.643.872.973 1.644.994h2.79c.984-.02 1.25-.453.801-1.296l-9.577-18.484c-.45-.846-1.563-1.266-3.339-1.266-1.778 0-2.889.44-3.339 1.326l-7.461 14.187-7.446-14.247c-.428-.846-1.53-1.266-3.308-1.266-1.775 0-2.905.44-3.385 1.326l-9.702 18.424c-.408.825-.172 1.245.705 1.266l2.898.03zm53.907-8.442v2.668c0 1.025.54 1.538 1.614 1.538h17.808c1.536 0 2.303.697 2.303 2.097 0 1.405-.825 2.109-2.475 2.109h-21.773c-1.954 0-2.931-.815-2.931-2.442V20.329c0-1.648.93-2.473 2.79-2.473h22.086c1.536-.02 2.303.669 2.303 2.067 0 1.426-.756 2.12-2.271 2.079h-17.84c-1.075.06-1.614.555-1.614 1.479v2.82h8.903c1.872.039 2.806.736 2.806 2.095 0 1.416-.966 2.106-2.899 2.066h-8.81zm36.13-2.065c0 1.416.962 2.106 2.885 2.065h5.626c1.566 0 2.544.33 2.931.995.09.153.159.318.204.49.052.206.047.422-.015.626v4.192c-.042 1.406.846 2.11 2.665 2.11 1.84 0 2.759-.704 2.759-2.11v-4.164c-.125-2.23-1.411-3.562-3.856-3.994 2.466-.473 3.783-1.946 3.949-4.418 0-1.317-.429-2.467-1.283-3.453-1.778-1.899-5.014-2.859-9.704-2.88h-13.23c-2.037.021-3.057.905-3.057 2.655v16.254c0 1.406.921 2.11 2.76 2.11 1.87.02 2.769-.685 2.697-2.11V23.601c0-1.026.631-1.537 1.894-1.537h9.03c.72.015 1.44.05 2.157.106.53.037 1.057.112 1.575.225.71.171 1.175.38 1.4.626.225.246.339.634.339 1.168a2.4 2.4 0 0 1-.08.656c-.051.186-.12.35-.204.49-.387.644-1.363.965-2.931.965h-5.751c-1.84.042-2.76.738-2.76 2.097zm48.578 8.368c0 1.405-.768 2.12-2.305 2.139h-11.222c-4.086 0-7.395-.96-9.922-2.88-2.487-1.91-3.732-4.452-3.732-7.628 0-3.135 1.245-5.66 3.732-7.569 2.571-1.94 5.847-2.93 9.828-2.97h11.316c1.537-.02 2.305.668 2.305 2.066 0 1.425-.759 2.12-2.272 2.079l-.911.06h-10.44c-2.37.042-4.32.65-5.845 1.825-1.506 1.217-2.258 2.718-2.258 4.51 0 2.672 1.406 4.537 4.217 5.593a9.54 9.54 0 0 0 3.888.678h11.316c1.537 0 2.305.697 2.305 2.095v.002zm31.49-8.368V20.54l-.03-.557c0-1.357-.922-2.056-2.76-2.095-1.86-.021-2.759.678-2.696 2.094v8.385a5.235 5.235 0 0 1-.213 1.899 5.194 5.194 0 0 1-.822 1.597c-1.516 1.89-3.861 2.835-7.036 2.835-1.245 0-2.573-.235-3.984-.71-2.811-1.054-4.217-2.918-4.217-5.591v-8.414c.075-1.417-.825-2.116-2.694-2.095-1.84.039-2.76.738-2.76 2.094v8.415c0 3.175 1.244 5.72 3.731 7.627 2.529 1.92 5.836 2.88 9.924 2.88 4.093 0 7.386-.96 9.873-2.88 2.518-1.929 3.747-4.473 3.684-7.627zm17.32 2.065c-1.923.04-2.885-.65-2.885-2.065 0-1.36.92-2.055 2.76-2.097h5.751c1.568 0 2.546-.321 2.931-.965.084-.14.153-.304.204-.49a2.4 2.4 0 0 0 .08-.656c0-.534-.113-.922-.338-1.168-.225-.246-.691-.455-1.402-.626a11.002 11.002 0 0 0-1.575-.225 38.266 38.266 0 0 0-2.156-.106h-9.03c-1.264 0-1.894.511-1.894 1.537v13.164c.072 1.425-.827 2.13-2.697 2.11-1.839 0-2.76-.704-2.76-2.11V20.511c0-1.75 1.02-2.634 3.057-2.655h13.23c4.692.021 7.926.981 9.703 2.88a5.108 5.108 0 0 1 1.286 3.453c-.168 2.472-1.485 3.945-3.951 4.418 2.445.432 3.73 1.764 3.856 3.994v4.164c0 1.406-.921 2.11-2.76 2.11-1.818 0-2.704-.704-2.662-2.11v-4.192c.061-.204.066-.42.013-.626a1.946 1.946 0 0 0-.204-.49c-.385-.665-1.363-.995-2.931-.995h-5.626zm29.862 8.412c1.899 0 2.841-.688 2.82-2.064v-8.173l10.032-9.483c.899-.825.444-1.257-1.363-1.298h-2.399c-1.462 0-2.514.434-3.15 1.298l-4.765 4.885c-.638.492-1.271.492-1.898 0l-4.593-4.795c-.898-.945-2.095-1.398-3.589-1.358h-1.74c-1.39.203-1.646.81-.768 1.826 1.095 1.14 2.193 2.277 3.292 3.414a204.094 204.094 0 0 0 3.81 3.868c.301.298.601.597.9.897l.354.353.123.123.284.27v8.127c-.125 1.405.757 2.11 2.65 2.11z"/><path d="M10.969 9.254c-1.706 2.314 34.503 30.485 42.867 35.972a7.506 7.506 0 0 0-.374.597c-5.478-2.638-12.106-7.05-21.587-13.603C13.142 19.272-.363 6.498 1.71 3.693c2.029-2.745 18.227 5.07 36.477 17.54a23.02 23.02 0 0 0-.136.102C32.639 18.36 12.295 7.46 10.969 9.254zm81.19 43.02c0 .706-.268 1.268-.803 1.687-.535.417-1.3.627-2.295.627h-7.286v-10.11h7.245c2.093 0 3.139.753 3.139 2.26v5.535zm-2.057-5.13v4.643c0 .89-.575 1.335-1.724 1.335h-4.515v-7.19h4.515c1.15 0 1.724.403 1.724 1.211zm22.314 3.13h-6.813v1.707c0 .754.607 1.13 1.825 1.13h5.397v1.477h-5.964c-1.029 0-1.83-.173-2.403-.516-.63-.384-.945-.926-.945-1.626v-5.687c0-.699.279-1.25.84-1.65.56-.402 1.332-.601 2.321-.601h6.151v1.474h-5.418c-1.203 0-1.804.37-1.804 1.11v1.728h6.813v1.454zm18.642 3.535l4.756-9.322h-2.196l-4.062 8.18-4.023-8.18h-2.215l4.758 9.322c.315.612.814.92 1.5.92.672 0 1.167-.308 1.482-.92zm23.689-3.535h-6.814v1.707c0 .754.609 1.13 1.827 1.13h5.397v1.477h-5.963c-1.03 0-1.831-.173-2.406-.516-.63-.384-.945-.926-.945-1.626v-5.687c0-.699.279-1.25.84-1.65.561-.402 1.335-.601 2.321-.601h6.153v1.474h-5.418c-1.203 0-1.806.37-1.806 1.11v1.728h6.814v1.454zm16.005 4.314h5.553v-1.466h-5.07c-.847 0-1.401-.076-1.66-.234-.342-.2-.513-.56-.513-1.08v-7.33h-2.09v7.684c0 .896.326 1.524.975 1.884.653.362 1.586.542 2.805.542zm25.949-2.294c0 1.529-1.145 2.292-3.435 2.292h-3.161c-1.105 0-1.932-.168-2.476-.504-.659-.405-.987-.993-.987-1.77V46.8c0-.768.334-1.364 1.006-1.788.533-.35 1.352-.525 2.457-.525h3.182c2.275 0 3.414.77 3.414 2.313v5.494zm-2.058-5.071v4.707c0 .44-.147.745-.441.92-.296.175-.764.262-1.409.262h-2.194c-.672 0-1.137-.087-1.395-.263-.315-.222-.473-.541-.473-.96v-4.666c0-.471.143-.798.431-.984.286-.186.765-.276 1.437-.276h2.194c.66 0 1.131.09 1.419.276.287.186.431.513.431.984zm23.733 1.395c0 .672-.278 1.203-.83 1.59-.553.388-1.309.582-2.268.582h-5.115v3.798h-2.087V44.457h7.097c.915 0 1.664.165 2.235.495.617.363.932.86.947 1.494.013.68.021 1.404.021 2.172zm-2.091-1.677v1.201c0 .76-.573 1.143-1.722 1.143h-4.398v-3.364h4.452c1.113 0 1.668.34 1.668 1.02zm27.714 7.696h-1.995v-7.95l-3.685 7.08c-.357.695-.858 1.043-1.502 1.043-.385 0-.7-.102-.945-.303a2.604 2.604 0 0 1-.472-.677l-3.77-7.143v7.95h-1.995V45.84c0-.384.158-.702.473-.954.315-.254.753-.378 1.312-.378.848 0 1.428.313 1.743.937l3.633 7.161 3.696-7.17c.33-.634.903-.95 1.722-.95.573 0 1.014.13 1.322.39.3.241.471.608.463.994v8.767zm13.442-4.363h6.814V48.82h-6.814v-1.728c0-.74.603-1.11 1.806-1.11h5.418v-1.474h-6.153c-.986 0-1.76.2-2.321.601-.559.4-.84.951-.84 1.65v5.687c0 .7.315 1.242.945 1.626.575.343 1.376.516 2.405.516h5.964v-1.476h-5.397c-1.217 0-1.827-.377-1.827-1.131v-1.707zm29.382 3.1a1.21 1.21 0 0 1-.431.95c-.315.283-.74.424-1.272.424-.496 0-.88-.106-1.155-.322-.12-.095-.33-.37-.63-.82l-4.86-7.12v8.121h-1.995V45.96c0-.983.566-1.475 1.701-1.475.518 0 .909.105 1.174.315.148.111.365.386.652.816l4.819 7.11V44.58h1.995v8.796l.002-.002zm15.983-7.443h3.57l.002-1.474h-9.21v1.474h3.549v8.655h2.089v-8.655z" fill-opacity=".5"/></g></svg>